<?xml version="1.0" encoding="UTF-8"?>
<!DOCTYPE svg PUBLIC "-//W3C//DTD SVG 1.1//EN" "http://www.w3.org/Graphics/SVG/1.1/DTD/svg11.dtd">
<!-- Creator: CorelDRAW -->
<svg xmlns="http://www.w3.org/2000/svg" xml:space="preserve" width="167.803mm" height="74.6658mm" version="1.1" style="shape-rendering:geometricPrecision; text-rendering:geometricPrecision; image-rendering:optimizeQuality; fill-rule:evenodd; clip-rule:evenodd"
viewBox="0 0 16766.05 7460.24"
 xmlns:xlink="http://www.w3.org/1999/xlink"
 xmlns:xodm="http://www.corel.com/coreldraw/odm/2003">
 <defs>
  <style type="text/css">
   <![CDATA[
    .fil0 {fill:black;fill-rule:nonzero}
   ]]>
  </style>
 </defs>
 <g id="Layer_x0020_1">
  <metadata id="CorelCorpID_0Corel-Layer"/>
  <g id="_105553145277984">
   <path class="fil0" d="M1039.71 7458.76c-202.94,0 -382.35,-58.82 -538.23,-175 -155.88,-116.17 -277.93,-266.17 -367.65,-448.53 -89.7,-182.36 -133.83,-375 -133.83,-577.94 0,-322.06 54.41,-594.12 161.76,-816.17 107.35,-222.05 255.88,-407.35 444.11,-560.29 188.23,-152.94 405.88,-285.29 654.4,-398.52 248.53,-113.23 508.82,-223.53 783.81,-332.35l0 -367.65c0,-208.82 -11.76,-382.35 -35.29,-520.59 -23.53,-136.76 -73.53,-241.18 -148.52,-308.82 -75,-69.12 -186.76,-102.94 -336.76,-102.94 -130.88,0 -238.24,29.42 -317.64,89.7 -80.88,60.29 -138.23,145.59 -175,255.88 -35.29,110.3 -54.41,241.18 -54.41,389.7l0 260.29 -949.99 -35.29c11.76,-573.52 144.12,-997.05 394.12,-1269.11 251.47,-272.06 639.7,-407.35 1166.17,-407.35 526.47,0 879.4,141.18 1094.11,422.05 214.71,280.88 323.53,686.76 323.53,1219.1l0 2367.63c0,161.76 4.42,316.17 13.24,466.17 8.82,150 20.59,288.24 35.29,416.18 14.71,129.41 27.94,250 41.18,363.23l-879.39 0.02c-17.65,-95.59 -39.71,-216.18 -67.64,-363.23 -26.47,-147.06 -47.06,-279.41 -58.82,-398.52 -60.29,202.94 -175,392.65 -345.59,569.12 -170.59,176.47 -404.41,264.71 -704.4,264.71l1.46 -1.48zm376.47 -824.99c95.59,0 185.29,-26.47 269.11,-80.88 83.82,-54.41 158.83,-114.7 223.53,-183.82 66.17,-69.12 110.3,-123.53 133.83,-166.18l0 -1470.58c-150,83.82 -289.7,167.65 -422.05,251.47 -130.88,83.82 -247.06,172.05 -345.59,264.71 -98.53,92.64 -176.47,197.05 -232.35,313.23 -57.35,116.17 -85.3,250 -85.3,398.52 0,208.82 38.24,373.52 116.17,492.64 77.94,119.12 191.18,179.41 341.17,179.41l1.48 1.49z"/>
   <polygon class="fil0" points="4016.15,7386.7 4016.15,123.54 4974.96,123.54 4974.96,7386.7 "/>
   <polygon class="fil0" points="6070.54,7386.7 6070.54,123.54 7029.36,123.54 7029.36,7386.7 "/>
   <path class="fil0" d="M8097 1433.81l0 -1004.4 958.82 0 0 1004.41 -958.82 -0.01zm0 5952.89l0 -5182.31 958.82 0 0 5182.31 -958.82 0z"/>
   <path class="fil0" d="M11521.97 7458.76c-405.88,0 -720.58,-79.41 -941.17,-238.24 -220.58,-158.83 -375,-391.18 -461.76,-700 -86.77,-307.35 -129.41,-685.29 -129.41,-1133.82l0 -1183.81c0,-460.29 44.11,-842.64 133.83,-1147.05 89.7,-304.41 247.06,-535.29 470.58,-689.7 223.53,-155.88 533.82,-232.35 927.93,-232.35 436.76,0 757.35,89.7 963.23,269.11 205.89,179.41 342.65,438.23 407.35,774.99 66.17,338.23 98.53,742.64 98.53,1214.7l0 422.05 -2044.1 0.02 0 1039.7c0,208.82 19.11,379.41 58.82,511.77 38.24,130.88 101.47,227.94 188.23,291.17 86.77,63.24 198.53,94.12 336.76,94.12 138.23,0 252.94,-33.82 327.94,-102.94 75,-69.12 125,-167.65 152.94,-295.59 26.47,-127.94 39.71,-279.41 39.71,-452.94l0 -313.23 932.34 0 0 197.05c0,520.59 -110.3,929.4 -332.35,1227.93 -220.58,298.53 -597.05,448.53 -1129.4,448.53l0 -1.47zm-573.52 -3164.68l1102.93 0 0 -466.17c0,-214.71 -11.76,-395.58 -35.29,-542.64 -23.53,-147.06 -73.53,-257.35 -148.52,-332.35 -75,-75 -192.65,-111.77 -354.41,-111.77 -161.76,0 -273.53,35.29 -354.41,107.35 -80.88,72.06 -135.3,192.65 -166.18,363.23 -29.42,170.59 -44.11,404.41 -44.11,704.4l0 277.93 -0.01 0.01zm295.59 -2519.09l529.41 -1774.98 958.81 -0.01 -1004.41 1774.98 -483.81 0.01z"/>
   <path class="fil0" d="M15296.94 7458.76c-405.88,0 -720.58,-79.41 -941.17,-238.24 -220.58,-158.83 -375,-391.18 -461.76,-700 -86.77,-307.35 -129.41,-685.29 -129.41,-1133.82l0 -1183.81c0,-460.29 44.11,-842.64 133.83,-1147.05 89.7,-304.41 247.06,-535.29 470.58,-689.7 223.53,-155.88 533.82,-232.35 927.93,-232.35 436.76,0 757.35,89.7 963.23,269.11 205.89,179.41 342.65,438.23 407.35,774.99 66.17,338.23 98.53,742.64 98.53,1214.7l0 422.05 -2044.11 0.02 0 1039.7c0,208.82 19.11,379.41 58.82,511.77 38.24,130.88 101.47,227.94 188.23,291.17 86.77,63.24 198.53,94.12 336.76,94.12 138.23,0 252.94,-33.82 327.94,-102.94 75,-69.12 125,-167.65 152.94,-295.59 26.47,-127.94 39.71,-279.41 39.71,-452.94l0 -313.23 932.35 0 0 197.05c0,520.59 -110.3,929.4 -332.35,1227.93 -220.58,298.53 -597.05,448.53 -1129.4,448.53l0 -1.47zm-573.53 -3164.68l1102.93 0 0 -466.17c0,-214.71 -11.76,-395.58 -35.29,-542.64 -23.53,-147.06 -73.53,-257.35 -148.52,-332.35 -75,-75 -192.65,-111.77 -354.41,-111.77 -161.76,0 -273.53,35.29 -354.41,107.35 -80.88,72.06 -135.3,192.65 -166.18,363.23 -29.42,170.59 -44.11,404.41 -44.11,704.4l0 277.93 -0.01 0.01z"/>
  </g>
 </g>
</svg>
